<mxfile host="app.diagrams.net" modified="2023-03-27T05:21:47.719Z" agent="5.0 (Windows NT 10.0; Win64; x64) AppleWebKit/537.36 (KHTML, like Gecko) Chrome/110.0.5481.178 Safari/537.36" etag="RextsEV3ShYND3fFDmiC" version="21.0.8" type="github">
  <diagram name="페이지-1" id="qUL7yQy3c1K6SvfihpiI">
    <mxGraphModel dx="1434" dy="756" grid="1" gridSize="10" guides="1" tooltips="1" connect="1" arrows="1" fold="1" page="1" pageScale="1" pageWidth="1040" pageHeight="459" math="0" shadow="0">
      <root>
        <mxCell id="0" />
        <mxCell id="1" parent="0" />
        <mxCell id="I6AebHs0c2UDx6FxfoX2-47" style="edgeStyle=orthogonalEdgeStyle;rounded=0;orthogonalLoop=1;jettySize=auto;html=1;entryX=0;entryY=0.5;entryDx=0;entryDy=0;" parent="1" source="I6AebHs0c2UDx6FxfoX2-1" target="I6AebHs0c2UDx6FxfoX2-3" edge="1">
          <mxGeometry relative="1" as="geometry" />
        </mxCell>
        <mxCell id="I6AebHs0c2UDx6FxfoX2-61" style="edgeStyle=orthogonalEdgeStyle;rounded=0;orthogonalLoop=1;jettySize=auto;html=1;entryX=0;entryY=0.5;entryDx=0;entryDy=0;" parent="1" source="I6AebHs0c2UDx6FxfoX2-1" target="I6AebHs0c2UDx6FxfoX2-60" edge="1">
          <mxGeometry relative="1" as="geometry" />
        </mxCell>
        <mxCell id="I6AebHs0c2UDx6FxfoX2-1" value="Whole Slide Image" style="rounded=0;whiteSpace=wrap;html=1;" parent="1" vertex="1">
          <mxGeometry x="40" y="280" width="120" height="40" as="geometry" />
        </mxCell>
        <mxCell id="I6AebHs0c2UDx6FxfoX2-28" style="edgeStyle=orthogonalEdgeStyle;rounded=0;orthogonalLoop=1;jettySize=auto;html=1;entryX=0;entryY=0.5;entryDx=0;entryDy=0;" parent="1" source="I6AebHs0c2UDx6FxfoX2-3" target="I6AebHs0c2UDx6FxfoX2-26" edge="1">
          <mxGeometry relative="1" as="geometry" />
        </mxCell>
        <mxCell id="I6AebHs0c2UDx6FxfoX2-29" style="edgeStyle=orthogonalEdgeStyle;rounded=0;orthogonalLoop=1;jettySize=auto;html=1;entryX=0;entryY=0.5;entryDx=0;entryDy=0;" parent="1" source="I6AebHs0c2UDx6FxfoX2-3" target="I6AebHs0c2UDx6FxfoX2-27" edge="1">
          <mxGeometry relative="1" as="geometry" />
        </mxCell>
        <mxCell id="I6AebHs0c2UDx6FxfoX2-43" style="edgeStyle=orthogonalEdgeStyle;rounded=0;orthogonalLoop=1;jettySize=auto;html=1;entryX=0;entryY=0.5;entryDx=0;entryDy=0;" parent="1" source="I6AebHs0c2UDx6FxfoX2-3" target="I6AebHs0c2UDx6FxfoX2-6" edge="1">
          <mxGeometry relative="1" as="geometry" />
        </mxCell>
        <mxCell id="I6AebHs0c2UDx6FxfoX2-44" style="edgeStyle=orthogonalEdgeStyle;rounded=0;orthogonalLoop=1;jettySize=auto;html=1;entryX=0;entryY=0.5;entryDx=0;entryDy=0;" parent="1" source="I6AebHs0c2UDx6FxfoX2-3" target="I6AebHs0c2UDx6FxfoX2-5" edge="1">
          <mxGeometry relative="1" as="geometry">
            <Array as="points">
              <mxPoint x="410" y="110" />
              <mxPoint x="410" y="80" />
            </Array>
          </mxGeometry>
        </mxCell>
        <mxCell id="I6AebHs0c2UDx6FxfoX2-45" style="edgeStyle=orthogonalEdgeStyle;rounded=0;orthogonalLoop=1;jettySize=auto;html=1;entryX=0;entryY=0.5;entryDx=0;entryDy=0;" parent="1" source="I6AebHs0c2UDx6FxfoX2-3" target="I6AebHs0c2UDx6FxfoX2-7" edge="1">
          <mxGeometry relative="1" as="geometry">
            <Array as="points">
              <mxPoint x="410" y="110" />
              <mxPoint x="410" y="140" />
            </Array>
          </mxGeometry>
        </mxCell>
        <mxCell id="I6AebHs0c2UDx6FxfoX2-3" value="RGB to HSV" style="rounded=0;whiteSpace=wrap;html=1;" parent="1" vertex="1">
          <mxGeometry x="240" y="90" width="120" height="40" as="geometry" />
        </mxCell>
        <mxCell id="I6AebHs0c2UDx6FxfoX2-58" style="edgeStyle=orthogonalEdgeStyle;rounded=0;orthogonalLoop=1;jettySize=auto;html=1;entryX=0;entryY=0.5;entryDx=0;entryDy=0;" parent="1" source="I6AebHs0c2UDx6FxfoX2-4" target="I6AebHs0c2UDx6FxfoX2-57" edge="1">
          <mxGeometry relative="1" as="geometry" />
        </mxCell>
        <mxCell id="I6AebHs0c2UDx6FxfoX2-4" value="Annotation" style="rounded=0;whiteSpace=wrap;html=1;" parent="1" vertex="1">
          <mxGeometry x="40" y="380" width="120" height="40" as="geometry" />
        </mxCell>
        <mxCell id="I6AebHs0c2UDx6FxfoX2-10" value="Range Selecter" style="swimlane;whiteSpace=wrap;html=1;dashed=1;" parent="1" vertex="1">
          <mxGeometry x="400" y="40" width="240" height="160" as="geometry" />
        </mxCell>
        <mxCell id="I6AebHs0c2UDx6FxfoX2-9" value="Intersection" style="rounded=0;whiteSpace=wrap;html=1;" parent="I6AebHs0c2UDx6FxfoX2-10" vertex="1">
          <mxGeometry x="150" y="70" width="80" height="20" as="geometry" />
        </mxCell>
        <mxCell id="I6AebHs0c2UDx6FxfoX2-15" style="edgeStyle=orthogonalEdgeStyle;rounded=0;orthogonalLoop=1;jettySize=auto;html=1;entryX=0.5;entryY=0;entryDx=0;entryDy=0;" parent="I6AebHs0c2UDx6FxfoX2-10" source="I6AebHs0c2UDx6FxfoX2-8" target="I6AebHs0c2UDx6FxfoX2-9" edge="1">
          <mxGeometry relative="1" as="geometry" />
        </mxCell>
        <mxCell id="I6AebHs0c2UDx6FxfoX2-8" value="Color Select" style="rounded=0;whiteSpace=wrap;html=1;" parent="I6AebHs0c2UDx6FxfoX2-10" vertex="1">
          <mxGeometry x="150" y="30" width="80" height="20" as="geometry" />
        </mxCell>
        <mxCell id="I6AebHs0c2UDx6FxfoX2-5" value="Hue" style="rounded=0;whiteSpace=wrap;html=1;" parent="I6AebHs0c2UDx6FxfoX2-10" vertex="1">
          <mxGeometry x="30" y="30" width="80" height="20" as="geometry" />
        </mxCell>
        <mxCell id="I6AebHs0c2UDx6FxfoX2-32" style="edgeStyle=orthogonalEdgeStyle;rounded=0;orthogonalLoop=1;jettySize=auto;html=1;entryX=0;entryY=0.5;entryDx=0;entryDy=0;" parent="I6AebHs0c2UDx6FxfoX2-10" source="I6AebHs0c2UDx6FxfoX2-6" target="I6AebHs0c2UDx6FxfoX2-8" edge="1">
          <mxGeometry relative="1" as="geometry" />
        </mxCell>
        <mxCell id="I6AebHs0c2UDx6FxfoX2-6" value="Saturation" style="rounded=0;whiteSpace=wrap;html=1;" parent="I6AebHs0c2UDx6FxfoX2-10" vertex="1">
          <mxGeometry x="30" y="60" width="80" height="20" as="geometry" />
        </mxCell>
        <mxCell id="I6AebHs0c2UDx6FxfoX2-33" style="edgeStyle=orthogonalEdgeStyle;rounded=0;orthogonalLoop=1;jettySize=auto;html=1;entryX=0;entryY=0.5;entryDx=0;entryDy=0;" parent="I6AebHs0c2UDx6FxfoX2-10" source="I6AebHs0c2UDx6FxfoX2-7" target="I6AebHs0c2UDx6FxfoX2-8" edge="1">
          <mxGeometry relative="1" as="geometry" />
        </mxCell>
        <mxCell id="I6AebHs0c2UDx6FxfoX2-35" style="edgeStyle=orthogonalEdgeStyle;rounded=0;orthogonalLoop=1;jettySize=auto;html=1;entryX=0;entryY=0.5;entryDx=0;entryDy=0;" parent="I6AebHs0c2UDx6FxfoX2-10" source="I6AebHs0c2UDx6FxfoX2-7" target="I6AebHs0c2UDx6FxfoX2-31" edge="1">
          <mxGeometry relative="1" as="geometry" />
        </mxCell>
        <mxCell id="I6AebHs0c2UDx6FxfoX2-7" value="Value" style="rounded=0;whiteSpace=wrap;html=1;" parent="I6AebHs0c2UDx6FxfoX2-10" vertex="1">
          <mxGeometry x="30" y="90" width="80" height="20" as="geometry" />
        </mxCell>
        <mxCell id="I6AebHs0c2UDx6FxfoX2-12" style="edgeStyle=orthogonalEdgeStyle;rounded=0;orthogonalLoop=1;jettySize=auto;html=1;entryX=0;entryY=0.5;entryDx=0;entryDy=0;" parent="I6AebHs0c2UDx6FxfoX2-10" source="I6AebHs0c2UDx6FxfoX2-5" target="I6AebHs0c2UDx6FxfoX2-8" edge="1">
          <mxGeometry relative="1" as="geometry" />
        </mxCell>
        <mxCell id="I6AebHs0c2UDx6FxfoX2-37" style="edgeStyle=orthogonalEdgeStyle;rounded=0;orthogonalLoop=1;jettySize=auto;html=1;entryX=0.5;entryY=1;entryDx=0;entryDy=0;" parent="I6AebHs0c2UDx6FxfoX2-10" source="I6AebHs0c2UDx6FxfoX2-31" target="I6AebHs0c2UDx6FxfoX2-9" edge="1">
          <mxGeometry relative="1" as="geometry" />
        </mxCell>
        <mxCell id="I6AebHs0c2UDx6FxfoX2-31" value="Laplacian" style="rounded=0;whiteSpace=wrap;html=1;" parent="I6AebHs0c2UDx6FxfoX2-10" vertex="1">
          <mxGeometry x="150" y="110" width="80" height="20" as="geometry" />
        </mxCell>
        <mxCell id="I6AebHs0c2UDx6FxfoX2-49" style="edgeStyle=orthogonalEdgeStyle;rounded=0;orthogonalLoop=1;jettySize=auto;html=1;entryX=0;entryY=0.5;entryDx=0;entryDy=0;" parent="1" source="I6AebHs0c2UDx6FxfoX2-26" target="I6AebHs0c2UDx6FxfoX2-48" edge="1">
          <mxGeometry relative="1" as="geometry" />
        </mxCell>
        <mxCell id="I6AebHs0c2UDx6FxfoX2-26" value="RangeSelecter[2]" style="rounded=0;whiteSpace=wrap;html=1;" parent="1" vertex="1">
          <mxGeometry x="400" y="210" width="240" height="20" as="geometry" />
        </mxCell>
        <mxCell id="I6AebHs0c2UDx6FxfoX2-50" style="edgeStyle=orthogonalEdgeStyle;rounded=0;orthogonalLoop=1;jettySize=auto;html=1;entryX=0;entryY=0.5;entryDx=0;entryDy=0;" parent="1" source="I6AebHs0c2UDx6FxfoX2-27" target="I6AebHs0c2UDx6FxfoX2-48" edge="1">
          <mxGeometry relative="1" as="geometry" />
        </mxCell>
        <mxCell id="I6AebHs0c2UDx6FxfoX2-27" value="RangeSelecter[n]" style="rounded=0;whiteSpace=wrap;html=1;" parent="1" vertex="1">
          <mxGeometry x="400" y="290" width="240" height="20" as="geometry" />
        </mxCell>
        <mxCell id="I6AebHs0c2UDx6FxfoX2-30" value="" style="endArrow=none;dashed=1;html=1;dashPattern=1 3;strokeWidth=2;rounded=0;" parent="1" edge="1">
          <mxGeometry width="50" height="50" relative="1" as="geometry">
            <mxPoint x="520" y="280" as="sourcePoint" />
            <mxPoint x="520" y="240" as="targetPoint" />
            <Array as="points" />
          </mxGeometry>
        </mxCell>
        <mxCell id="I6AebHs0c2UDx6FxfoX2-42" style="edgeStyle=orthogonalEdgeStyle;rounded=0;orthogonalLoop=1;jettySize=auto;html=1;entryX=0;entryY=0.5;entryDx=0;entryDy=0;" parent="1" source="I6AebHs0c2UDx6FxfoX2-9" target="I6AebHs0c2UDx6FxfoX2-48" edge="1">
          <mxGeometry relative="1" as="geometry">
            <mxPoint x="670" y="120" as="targetPoint" />
            <Array as="points">
              <mxPoint x="680" y="120" />
              <mxPoint x="680" y="180" />
            </Array>
          </mxGeometry>
        </mxCell>
        <mxCell id="I6AebHs0c2UDx6FxfoX2-53" style="edgeStyle=orthogonalEdgeStyle;rounded=0;orthogonalLoop=1;jettySize=auto;html=1;entryX=0;entryY=0.5;entryDx=0;entryDy=0;" parent="1" source="I6AebHs0c2UDx6FxfoX2-48" target="I6AebHs0c2UDx6FxfoX2-51" edge="1">
          <mxGeometry relative="1" as="geometry" />
        </mxCell>
        <mxCell id="I6AebHs0c2UDx6FxfoX2-48" value="Union" style="rounded=0;whiteSpace=wrap;html=1;" parent="1" vertex="1">
          <mxGeometry x="720" y="170" width="40" height="20" as="geometry" />
        </mxCell>
        <mxCell id="I6AebHs0c2UDx6FxfoX2-55" style="edgeStyle=orthogonalEdgeStyle;rounded=0;orthogonalLoop=1;jettySize=auto;html=1;entryX=0;entryY=0.5;entryDx=0;entryDy=0;" parent="1" source="I6AebHs0c2UDx6FxfoX2-51" target="I6AebHs0c2UDx6FxfoX2-54" edge="1">
          <mxGeometry relative="1" as="geometry" />
        </mxCell>
        <mxCell id="I6AebHs0c2UDx6FxfoX2-51" value="Gaussian blur&lt;br&gt;&amp;amp;&lt;br&gt;Thresholding" style="rounded=0;whiteSpace=wrap;html=1;" parent="1" vertex="1">
          <mxGeometry x="800" y="150" width="80" height="60" as="geometry" />
        </mxCell>
        <mxCell id="I6AebHs0c2UDx6FxfoX2-54" value="save BIGTIFF" style="rounded=0;whiteSpace=wrap;html=1;" parent="1" vertex="1">
          <mxGeometry x="920" y="170" width="80" height="20" as="geometry" />
        </mxCell>
        <mxCell id="I6AebHs0c2UDx6FxfoX2-74" value="" style="edgeStyle=orthogonalEdgeStyle;rounded=0;orthogonalLoop=1;jettySize=auto;html=1;" parent="1" source="I6AebHs0c2UDx6FxfoX2-57" target="I6AebHs0c2UDx6FxfoX2-71" edge="1">
          <mxGeometry relative="1" as="geometry" />
        </mxCell>
        <mxCell id="I6AebHs0c2UDx6FxfoX2-57" value="Downsamping" style="rounded=0;whiteSpace=wrap;html=1;" parent="1" vertex="1">
          <mxGeometry x="240" y="380" width="120" height="40" as="geometry" />
        </mxCell>
        <mxCell id="I6AebHs0c2UDx6FxfoX2-62" style="edgeStyle=orthogonalEdgeStyle;rounded=0;orthogonalLoop=1;jettySize=auto;html=1;entryX=0.5;entryY=0;entryDx=0;entryDy=0;" parent="1" source="I6AebHs0c2UDx6FxfoX2-60" target="I6AebHs0c2UDx6FxfoX2-57" edge="1">
          <mxGeometry relative="1" as="geometry" />
        </mxCell>
        <mxCell id="I6AebHs0c2UDx6FxfoX2-63" style="edgeStyle=orthogonalEdgeStyle;rounded=0;orthogonalLoop=1;jettySize=auto;html=1;entryX=0.5;entryY=1;entryDx=0;entryDy=0;" parent="1" source="I6AebHs0c2UDx6FxfoX2-60" target="I6AebHs0c2UDx6FxfoX2-3" edge="1">
          <mxGeometry relative="1" as="geometry" />
        </mxCell>
        <mxCell id="I6AebHs0c2UDx6FxfoX2-60" value="Set ratio" style="rounded=0;whiteSpace=wrap;html=1;" parent="1" vertex="1">
          <mxGeometry x="260" y="290" width="80" height="20" as="geometry" />
        </mxCell>
        <mxCell id="I6AebHs0c2UDx6FxfoX2-64" value="save BIGTIFF" style="rounded=0;whiteSpace=wrap;html=1;" parent="1" vertex="1">
          <mxGeometry x="920" y="390" width="80" height="20" as="geometry" />
        </mxCell>
        <mxCell id="I6AebHs0c2UDx6FxfoX2-76" value="" style="edgeStyle=orthogonalEdgeStyle;rounded=0;orthogonalLoop=1;jettySize=auto;html=1;" parent="1" source="I6AebHs0c2UDx6FxfoX2-66" target="I6AebHs0c2UDx6FxfoX2-72" edge="1">
          <mxGeometry relative="1" as="geometry" />
        </mxCell>
        <mxCell id="I6AebHs0c2UDx6FxfoX2-66" value="Fill Polygon" style="rounded=0;whiteSpace=wrap;html=1;" parent="1" vertex="1">
          <mxGeometry x="600" y="380" width="120" height="40" as="geometry" />
        </mxCell>
        <mxCell id="I6AebHs0c2UDx6FxfoX2-75" value="" style="edgeStyle=orthogonalEdgeStyle;rounded=0;orthogonalLoop=1;jettySize=auto;html=1;" parent="1" source="I6AebHs0c2UDx6FxfoX2-71" target="I6AebHs0c2UDx6FxfoX2-66" edge="1">
          <mxGeometry relative="1" as="geometry" />
        </mxCell>
        <mxCell id="I6AebHs0c2UDx6FxfoX2-71" value="Coordinate to Polygon" style="rounded=0;whiteSpace=wrap;html=1;" parent="1" vertex="1">
          <mxGeometry x="400" y="380" width="160" height="40" as="geometry" />
        </mxCell>
        <mxCell id="I6AebHs0c2UDx6FxfoX2-78" value="" style="edgeStyle=orthogonalEdgeStyle;rounded=0;orthogonalLoop=1;jettySize=auto;html=1;" parent="1" source="I6AebHs0c2UDx6FxfoX2-72" target="I6AebHs0c2UDx6FxfoX2-64" edge="1">
          <mxGeometry relative="1" as="geometry" />
        </mxCell>
        <mxCell id="I6AebHs0c2UDx6FxfoX2-72" value="Merge mask" style="rounded=0;whiteSpace=wrap;html=1;" parent="1" vertex="1">
          <mxGeometry x="760" y="380" width="120" height="40" as="geometry" />
        </mxCell>
      </root>
    </mxGraphModel>
  </diagram>
</mxfile>
